<svg width="25" height="21" viewBox="0 0 25 21" fill="none" xmlns="http://www.w3.org/2000/svg">
<path d="M6.79001 2.40804C6.01001 2.40804 5.28634 2.60304 4.61901 2.99304C3.95168 3.38304 3.42301 3.91171 3.03301 4.57904C2.64301 5.24637 2.44801 5.97004 2.44801 6.75004C2.44801 8.53537 2.95934 10.234 3.98201 11.846C4.81401 13.198 5.97534 14.4634 7.46601 15.642C8.80068 16.734 10.3347 17.696 12.068 18.528L12.198 18.58C13.9833 17.7307 15.578 16.7427 16.982 15.616L16.93 15.642C18.4207 14.4634 19.582 13.198 20.414 11.846C21.4367 10.234 21.948 8.53537 21.948 6.75004C21.948 5.97004 21.753 5.24637 21.363 4.57904C20.973 3.91171 20.4443 3.38304 19.777 2.99304C19.1097 2.60304 18.386 2.40804 17.606 2.40804C16.9127 2.40804 16.2583 2.55971 15.643 2.86304C15.0277 3.16637 14.5077 3.58237 14.083 4.11104C13.6583 4.63971 13.3853 5.23337 13.264 5.89204C13.212 6.13471 13.0863 6.33837 12.887 6.50304C12.6877 6.66771 12.458 6.75004 12.198 6.75004C11.938 6.75004 11.7083 6.66771 11.509 6.50304C11.3097 6.33837 11.184 6.13471 11.132 5.89204C11.0107 5.23337 10.7377 4.63971 10.313 4.11104C9.88834 3.58237 9.36834 3.16637 8.75301 2.86304C8.13768 2.55971 7.48334 2.40804 6.79001 2.40804ZM12.198 20.842C12.042 20.8247 11.886 20.79 11.73 20.738C11.6433 20.7034 11.496 20.634 11.288 20.53C9.38134 19.6287 7.63934 18.5454 6.06201 17.28L6.11401 17.332C4.43268 16.0147 3.10668 14.576 2.13601 13.016C0.905342 11.04 0.290009 8.95137 0.290009 6.75004C0.290009 5.57137 0.580342 4.48371 1.16101 3.48704C1.74168 2.49037 2.53034 1.70171 3.52701 1.12104C4.52368 0.540375 5.61134 0.25004 6.79001 0.25004C7.88201 0.25004 8.90034 0.49704 9.84501 0.991041C10.7897 1.48504 11.574 2.15671 12.198 3.00604V3.03204C12.822 2.16537 13.6063 1.48504 14.551 0.991041C15.4957 0.49704 16.514 0.25004 17.606 0.25004C18.7847 0.25004 19.8723 0.540375 20.869 1.12104C21.8657 1.70171 22.6543 2.49037 23.235 3.48704C23.8157 4.48371 24.106 5.57137 24.106 6.75004C24.106 8.95137 23.4907 11.04 22.26 13.016C21.2893 14.576 19.9633 16.0147 18.282 17.332C16.7393 18.5454 15.0667 19.594 13.264 20.478L13.108 20.53C12.692 20.738 12.3887 20.842 12.198 20.842Z" fill="#030712"/>
</svg>
