<svg width="10" height="12" viewBox="0 0 10 12" fill="none" xmlns="http://www.w3.org/2000/svg">
<path d="M7.04206 0.684987C6.98339 0.567654 6.89906 0.474154 6.78906 0.404487C6.67906 0.33482 6.55806 0.299987 6.42606 0.299987C6.29406 0.299987 6.17122 0.33482 6.05756 0.404487C5.94389 0.474154 5.85772 0.567654 5.79906 0.684987L4.42406 3.53399L1.33306 3.98499C1.20839 3.99965 1.09472 4.04915 0.992058 4.13349C0.889391 4.21782 0.819725 4.32232 0.783058 4.44699C0.746391 4.57165 0.742725 4.69815 0.772058 4.82649C0.801391 4.95482 0.863725 5.06299 0.959058 5.15099L3.19206 7.37299L2.66406 10.497C2.64206 10.629 2.65672 10.7537 2.70806 10.871C2.75939 10.9883 2.83639 11.0873 2.93906 11.168C3.04172 11.2487 3.15906 11.2927 3.29106 11.3C3.42306 11.3073 3.54772 11.2817 3.66506 11.223L6.42606 9.74899L9.18706 11.223C9.30439 11.2817 9.42722 11.3073 9.55556 11.3C9.68389 11.2927 9.80306 11.2505 9.91306 11.1735C10.0231 11.0965 10.1019 10.9975 10.1496 10.8765C10.1972 10.7555 10.2101 10.629 10.1881 10.497L9.64906 7.37299L11.8931 5.15099C11.9884 5.06299 12.0507 4.95482 12.0801 4.82649C12.1094 4.69815 12.1021 4.57165 12.0581 4.44699C12.0141 4.32232 11.9444 4.21782 11.8491 4.13349C11.7537 4.04915 11.6401 3.99965 11.5081 3.98499L8.42806 3.53399L7.04206 0.684987Z" fill="#FACC15"/>
</svg>
