<svg width="13" height="12" viewBox="0 0 13 12" fill="none" xmlns="http://www.w3.org/2000/svg">
<path d="M7.04212 1.07499C6.98345 0.957653 6.89912 0.864153 6.78912 0.794486C6.67912 0.724819 6.55812 0.689986 6.42612 0.689986C6.29412 0.689986 6.17129 0.724819 6.05762 0.794486C5.94395 0.864153 5.85779 0.957653 5.79912 1.07499L4.42412 3.92399L1.33312 4.37499C1.20845 4.38965 1.09479 4.43915 0.992119 4.52349C0.889452 4.60782 0.819786 4.71232 0.783119 4.83699C0.746452 4.96165 0.742786 5.08815 0.772119 5.21649C0.801452 5.34482 0.863786 5.45299 0.959119 5.54099L3.19212 7.76299L2.66412 10.887C2.64212 11.019 2.65679 11.1437 2.70812 11.261C2.75945 11.3783 2.83645 11.4773 2.93912 11.558C3.04179 11.6387 3.15912 11.6827 3.29112 11.69C3.42312 11.6973 3.54779 11.6717 3.66512 11.613L6.42612 10.139L9.18712 11.613C9.30445 11.6717 9.42729 11.6973 9.55562 11.69C9.68395 11.6827 9.80312 11.6405 9.91312 11.5635C10.0231 11.4865 10.102 11.3875 10.1496 11.2665C10.1973 11.1455 10.2101 11.019 10.1881 10.887L9.64912 7.76299L11.8931 5.54099C11.9885 5.45299 12.0508 5.34482 12.0801 5.21649C12.1095 5.08815 12.1021 4.96165 12.0581 4.83699C12.0141 4.71232 11.9445 4.60782 11.8491 4.52349C11.7538 4.43915 11.6401 4.38965 11.5081 4.37499L8.42812 3.92399L7.04212 1.07499Z" fill="#D1D5DB"/>
</svg>
